<svg xmlns="http://www.w3.org/2000/svg" width="348.869" height="351.608" viewBox="0 0 348.869 351.608">
  <g id="Path_5" data-name="Path 5" transform="translate(-506.805 -1550.23)" fill="none" stroke-linejoin="round">
    <path d="M513.67,1573.939s-10.741-21.2,13.85-18.091,50.6-.989,50.6-.989,20.917-5.371,48.194,3.392,96.035,1.7,96.035,1.7,37.524-8.2,73.563-2.4c24.733,4.381,35.615-1.131,35.615-1.131s20.211-6.784,17.808,11.024-8.9,31.093-1.131,48.335,2.968,42.682,0,53.141-10.176,56.6-5.229,81.2,13.709,45.014,7.632,76.107-3.816,47.911-1.979,53.565,12.437,20.21-13.85,16.818-41.693-5.37-64.023,1.7c-9.54,2.756-57.451-5.865-57.451-5.865s-52.434-7.349-89.887,3.251c-9.893,2.544-19.539,3.957-54.554,0s-40.951,0-40.951,0-19.362,5.512-13.568-15.547-.565-51.586-.565-51.586-8.339-5.759-.848-53.282,5.512-72.4,5.512-72.4-11.306-55.19-4.523-80.064S513.67,1573.939,513.67,1573.939Z" stroke="none"/>
    <path d="M 594.7174682617188 1553.230346679688 C 584.4609375 1553.230346679688 578.1167602539063 1554.859252929688 578.1167602539063 1554.859252929688 C 578.1167602539063 1554.859252929688 564.4491577148438 1557.013549804688 547.5587768554688 1557.013549804688 C 541.1532592773438 1557.013549804688 534.2819213867188 1556.703491210938 527.5200805664063 1555.848510742188 C 525.8390502929688 1555.635986328125 524.3251342773438 1555.537109375 522.9595947265625 1555.537109375 C 504.3488159179688 1555.537109375 513.6696166992188 1573.939086914063 513.6696166992188 1573.939086914063 C 513.6696166992188 1573.939086914063 520.7008056640625 1597.930053710938 513.9169311523438 1622.804321289063 C 507.133056640625 1647.678588867188 518.4395141601563 1702.868774414063 518.4395141601563 1702.868774414063 C 518.4395141601563 1702.868774414063 520.4181518554688 1727.743041992188 512.9275512695313 1775.265747070313 C 505.4369506835938 1822.788452148438 513.7755737304688 1828.5478515625 513.7755737304688 1828.5478515625 C 513.7755737304688 1828.5478515625 520.135498046875 1859.075439453125 514.3408813476563 1880.133911132813 C 510.537109375 1893.957397460938 517.572509765625 1896.331176757813 522.8565673828125 1896.331176757813 C 525.6221313476563 1896.331176757813 527.9087524414063 1895.680419921875 527.9087524414063 1895.680419921875 C 527.9087524414063 1895.680419921875 530.5459594726563 1893.921630859375 542.6804809570313 1893.921630859375 C 548.7471923828125 1893.921630859375 557.1885986328125 1894.361328125 568.8595581054688 1895.680419921875 C 584.5269165039063 1897.451171875 595.1148071289063 1898.146484375 602.9187622070313 1898.146484375 C 612.5557250976563 1898.146484375 617.9470825195313 1897.086059570313 623.41357421875 1895.680419921875 C 639.1065673828125 1891.239013671875 657.4288330078125 1889.948852539063 673.4229125976563 1889.948852539063 C 695.6002197265625 1889.948852539063 713.3004150390625 1892.4296875 713.3004150390625 1892.4296875 C 713.3004150390625 1892.4296875 748.9181518554688 1898.838500976563 764.8474731445313 1898.838500976563 C 767.3924560546875 1898.838500976563 769.4375 1898.674682617188 770.7516479492188 1898.295043945313 C 781.766845703125 1894.809204101563 791.0968627929688 1893.5244140625 800.87939453125 1893.5244140625 C 810.9282836914063 1893.5244140625 821.45458984375 1894.880126953125 834.7749633789063 1896.598876953125 C 837.4656372070313 1896.946044921875 839.7677001953125 1897.105102539063 841.7344360351563 1897.105102539063 C 858.982421875 1897.105102539063 850.274658203125 1884.855224609375 848.6254272460938 1879.780639648438 C 846.7881469726563 1874.12744140625 844.5267944335938 1857.308837890625 850.60400390625 1826.215942382813 C 856.68115234375 1795.123046875 847.9187622070313 1774.700439453125 842.97216796875 1750.10888671875 C 838.0255737304688 1725.517333984375 845.2333984375 1679.372314453125 848.201416015625 1668.913818359375 C 851.16943359375 1658.455322265625 855.974609375 1633.015502929688 848.201416015625 1615.773193359375 C 840.4281616210938 1598.530883789063 846.929443359375 1585.24560546875 849.3320922851563 1567.437866210938 C 850.6959228515625 1557.329711914063 844.7753295898438 1555.14501953125 839.3992309570313 1555.145385742188 C 835.3040771484375 1555.145751953125 831.5242309570313 1556.413940429688 831.5242309570313 1556.413940429688 C 831.5242309570313 1556.413940429688 825.9531860351563 1559.236450195313 813.71875 1559.236450195313 C 808.8572998046875 1559.236450195313 802.94189453125 1558.790405273438 795.9087524414063 1557.544555664063 C 786.496337890625 1556.031127929688 776.9849853515625 1555.47216796875 768.0650024414063 1555.472290039063 C 742.8309326171875 1555.472534179688 722.3456420898438 1559.947143554688 722.3456420898438 1559.947143554688 C 722.3456420898438 1559.947143554688 696.14697265625 1562.639770507813 669.6761474609375 1562.639770507813 C 653.2660522460938 1562.639770507813 636.74951171875 1561.604614257813 626.3108520507813 1558.251220703125 C 614.0558471679688 1554.314331054688 603.0847778320313 1553.230346679688 594.7174682617188 1553.230346679688 M 594.7174682617188 1550.230346679688 C 599.5897827148438 1550.230346679688 604.557373046875 1550.588500976563 609.482177734375 1551.294799804688 C 615.45556640625 1552.151611328125 621.42626953125 1553.531127929688 627.2283935546875 1555.39501953125 C 635.9963989257813 1558.211669921875 650.2778930664063 1559.639770507813 669.6762084960938 1559.639770507813 C 694.6300048828125 1559.639770507813 719.6480712890625 1557.20166015625 721.8794555664063 1556.978881835938 C 722.8612670898438 1556.770629882813 727.783203125 1555.758422851563 735.3406982421875 1554.73681640625 C 742.9824829101563 1553.703857421875 754.863037109375 1552.472412109375 768.06494140625 1552.472290039063 C 778.1467895507813 1552.47216796875 787.675048828125 1553.18212890625 796.385009765625 1554.58251953125 C 796.4006958007813 1554.585083007813 796.4163818359375 1554.587768554688 796.4320678710938 1554.590576171875 C 802.5974731445313 1555.6826171875 808.4135131835938 1556.236450195313 813.71875 1556.236450195313 C 819.5711059570313 1556.236450195313 823.7415161132813 1555.552734375 826.20947265625 1554.979125976563 C 828.7469482421875 1554.389282226563 830.0498046875 1553.79296875 830.1790771484375 1553.732177734375 C 830.31640625 1553.660522460938 830.4209594726563 1553.619750976563 830.5700073242188 1553.569702148438 C 830.7432861328125 1553.511596679688 834.8662719726563 1552.145751953125 839.39892578125 1552.145385742188 C 841.3571166992188 1552.145263671875 843.14306640625 1552.399780273438 844.7072143554688 1552.902099609375 C 846.7462158203125 1553.556884765625 848.4302368164063 1554.632568359375 849.7125244140625 1556.099365234375 C 852.1133422851563 1558.845703125 852.9856567382813 1562.795532226563 852.30517578125 1567.838989257813 C 851.6908569335938 1572.39208984375 850.8250732421875 1576.605346679688 849.9877319335938 1580.679809570313 C 847.5824584960938 1592.384521484375 845.5051879882813 1602.4931640625 850.936279296875 1614.540283203125 C 852.87451171875 1618.839477539063 854.2003173828125 1623.880249023438 854.8768310546875 1629.522583007813 C 855.447021484375 1634.279052734375 855.5637817382813 1639.510131835938 855.2237548828125 1645.070556640625 C 854.9447021484375 1649.6337890625 854.3643798828125 1654.373291015625 853.4986572265625 1659.1572265625 C 852.640869140625 1663.8984375 851.7139282226563 1667.525268554688 851.0874633789063 1669.73291015625 C 849.7661743164063 1674.388671875 847.1915893554688 1688.254272460938 845.6046142578125 1704.503051757813 C 844.3004760742188 1717.855224609375 843.2954711914063 1736.503295898438 845.9132690429688 1749.517333984375 C 846.974365234375 1754.792724609375 848.2352294921875 1759.96484375 849.45458984375 1764.966674804688 C 851.6639404296875 1774.029541015625 853.9485473632813 1783.401000976563 855.020263671875 1793.391479492188 C 855.6001586914063 1798.796875 855.7914428710938 1803.960693359375 855.60498046875 1809.177978515625 C 855.3963623046875 1815.0166015625 854.7236328125 1820.777954101563 853.54833984375 1826.791381835938 C 850.918212890625 1840.247680664063 849.6055297851563 1852.270629882813 849.646728515625 1862.526123046875 C 849.6859741210938 1872.296142578125 850.9408569335938 1877.198974609375 851.478515625 1878.853393554688 C 851.6912231445313 1879.507934570313 852.108642578125 1880.444580078125 852.550537109375 1881.436279296875 C 853.3587036132813 1883.249877929688 854.3644409179688 1885.5068359375 854.894287109375 1887.764282226563 C 855.6201171875 1890.8564453125 855.31396484375 1893.463012695313 853.9841918945313 1895.51123046875 C 852.9581298828125 1897.091796875 851.3663330078125 1898.278198242188 849.2529907226563 1899.03759765625 C 847.2540283203125 1899.755981445313 844.794677734375 1900.105102539063 841.7344360351563 1900.105102539063 C 839.5916137695313 1900.105102539063 837.1209106445313 1899.926513671875 834.3909912109375 1899.57421875 C 821.1849975585938 1897.870239257813 810.7540283203125 1896.5244140625 800.8794555664063 1896.5244140625 C 790.7898559570313 1896.5244140625 781.7772216796875 1897.95263671875 771.65673828125 1901.1552734375 C 771.6326904296875 1901.162841796875 771.6085205078125 1901.170166015625 771.5842895507813 1901.177124023438 C 770.0438232421875 1901.622192382813 767.8402099609375 1901.838500976563 764.8474731445313 1901.838500976563 C 758.095703125 1901.838500976563 747.267578125 1900.749633789063 732.6640014648438 1898.602172851563 C 722.3174438476563 1897.080688476563 713.6454467773438 1895.538940429688 712.8309326171875 1895.393310546875 C 711.743896484375 1895.245239257813 694.5205078125 1892.948852539063 673.4229125976563 1892.948852539063 C 653.953369140625 1892.948852539063 637.4027099609375 1894.839111328125 624.2305297851563 1898.567016601563 C 624.2073364257813 1898.573608398438 624.1840209960938 1898.579956054688 624.1607055664063 1898.5859375 C 619.1217651367188 1899.881591796875 613.3308715820313 1901.146484375 602.9187622070313 1901.146484375 C 594.453125 1901.146484375 583.5235595703125 1900.35693359375 568.5226440429688 1898.661376953125 C 558.3076782226563 1897.506958007813 549.6131591796875 1896.921630859375 542.6804809570313 1896.921630859375 C 538.3564453125 1896.921630859375 534.8206176757813 1897.14599609375 532.1712036132813 1897.588623046875 C 530.311767578125 1897.899291992188 529.5421142578125 1898.218383789063 529.4116821289063 1898.27685546875 C 529.1974487304688 1898.400756835938 528.968505859375 1898.497924804688 528.72998046875 1898.565795898438 C 528.6201171875 1898.597045898438 526.0045166015625 1899.331176757813 522.8565673828125 1899.331176757813 C 518.3165893554688 1899.331176757813 514.7714233398438 1897.828002929688 512.6043701171875 1894.984008789063 C 511.2857055664063 1893.25341796875 510.5147705078125 1891.072387695313 510.3128662109375 1888.501342773438 C 510.1087036132813 1885.901123046875 510.49072265625 1882.818115234375 511.4483642578125 1879.338012695313 C 513.7249145507813 1871.064819335938 514.3450317382813 1859.777465820313 513.2418212890625 1846.696044921875 C 512.561279296875 1838.626708984375 511.417724609375 1832.177978515625 510.9985961914063 1829.97509765625 C 509.9010009765625 1828.601440429688 508.4515991210938 1825.801879882813 507.5782470703125 1820.189086914063 C 506.8820190429688 1815.714721679688 506.654541015625 1810.108764648438 506.9020385742188 1803.526977539063 C 507.2069091796875 1795.420776367188 508.2371215820313 1785.755249023438 509.9641723632813 1774.798583984375 C 513.7964477539063 1750.485229492188 515.0836181640625 1732.286376953125 515.4884643554688 1721.30078125 C 515.8875122070313 1710.4765625 515.5319213867188 1704.341552734375 515.4606323242188 1703.273193359375 C 515.1073608398438 1701.510986328125 512.4978637695313 1688.263305664063 510.6546020507813 1672.51318359375 C 509.4937133789063 1662.593627929688 508.8568725585938 1653.621215820313 508.7618408203125 1645.844848632813 C 508.6412353515625 1635.975341796875 509.4019165039063 1627.957885742188 511.0226440429688 1622.015014648438 C 514.4063110351563 1609.608276367188 514.156982421875 1597.399291992188 513.3521118164063 1589.342041015625 C 512.5758666992188 1581.572143554688 511.1651611328125 1576.143676757813 510.8528442382813 1575.004760742188 C 510.5017700195313 1574.259887695313 509.5773315429688 1572.169799804688 508.9569702148438 1569.592407226563 C 508.493408203125 1567.666015625 508.2874755859375 1565.841674804688 508.3450317382813 1564.170043945313 C 508.4234008789063 1561.893432617188 508.9888305664063 1559.883422851563 510.0256958007813 1558.196044921875 C 511.1539916992188 1556.359741210938 512.8085327148438 1554.945678710938 514.9434204101563 1553.993041992188 C 517.1085205078125 1553.026977539063 519.8055419921875 1552.537109375 522.9595947265625 1552.537109375 C 524.4768676757813 1552.537109375 526.1378173828125 1552.64990234375 527.8964233398438 1552.872192382813 C 533.8862915039063 1553.629516601563 540.5016479492188 1554.013549804688 547.5587768554688 1554.013549804688 C 563.1966552734375 1554.013549804688 576.15234375 1552.122314453125 577.529541015625 1551.914184570313 C 578.6207275390625 1551.651245117188 584.9684448242188 1550.230346679688 594.7174682617188 1550.230346679688 Z" stroke="none" fill="#1f1f1f"/>
  </g>
</svg>
